<?xml version="1.0" encoding="utf-8"?>
<!-- Generator: Adobe Illustrator 23.1.0, SVG Export Plug-In . SVG Version: 6.00 Build 0)  -->
<svg version="1.1" id="Capa_1" xmlns="http://www.w3.org/2000/svg" xmlns:xlink="http://www.w3.org/1999/xlink" x="0px" y="0px"
	 viewBox="0 0 120 260" style="enable-background:new 0 0 120 260;" xml:space="preserve">
<style type="text/css">
	.st0{fill:#5A5A5A;}
</style>
<g>
	<g>
		<rect x="85.56" y="29.96" class="st0" width="25.21" height="7.27"/>
	</g>
	<g>
		<rect x="85.56" y="50.56" class="st0" width="13.57" height="7.27"/>
	</g>
	<g>
		<rect x="85.56" y="71.17" class="st0" width="25.21" height="7.27"/>
	</g>
	<g>
		<rect x="85.56" y="91.77" class="st0" width="13.57" height="7.27"/>
	</g>
	<g>
		<rect x="85.56" y="112.37" class="st0" width="25.21" height="7.27"/>
	</g>
	<g>
		<rect x="85.56" y="132.98" class="st0" width="13.57" height="7.27"/>
	</g>
	<g>
		<rect x="85.56" y="153.58" class="st0" width="25.21" height="7.27"/>
	</g>
	<g>
		<g>
			<g>
				<g>
					<path class="st0" d="M81.86,205.09c0-10.85-6.39-20.75-16.29-25.24l-5.09-2.31v-5.59v-43.19c0-4.59-2.87-8.46-6.27-8.49v112.51
						C69.46,232.78,81.86,220.36,81.86,205.09z"/>
				</g>
			</g>
			<g>
				<g>
					<path class="st0" d="M47.88,128.77v43.19v5.59l-5.09,2.31c-11.64,5.27-20.32,19.24-14.4,35.72c2.56,7.13,7.82,12.5,14.83,15.15
						c3.64,1.37,7.33,2.07,10.97,2.07c0.01,0,0.02,0,0.03,0V120.28c-0.01,0-0.02,0-0.03,0C50.76,120.28,47.88,124.17,47.88,128.77z"
						/>
				</g>
			</g>
			<g>
				<g>
					<path class="st0" d="M99.19,205.1c0,24.81-20.16,45-44.97,45.03v-8.67h0.09c0.26,0,0.49-0.03,0.76-0.06
						c1.16-0.03,2.3-0.09,3.43-0.23c0.47-0.06,0.93-0.12,1.37-0.2c0.93-0.15,1.83-0.32,2.7-0.52c0.49-0.12,0.96-0.23,1.43-0.38
						c0.9-0.23,1.75-0.52,2.62-0.84c0.41-0.15,0.81-0.26,1.22-0.44c1.11-0.44,2.15-0.93,3.2-1.48c0.15-0.06,0.29-0.12,0.41-0.2
						c1.16-0.64,2.27-1.31,3.35-2.07c0.35-0.23,0.67-0.49,0.99-0.73c0.73-0.55,1.45-1.11,2.15-1.72l1.05-0.96
						c0.64-0.58,1.25-1.19,1.83-1.83c0.32-0.35,0.64-0.7,0.93-1.05c0.64-0.73,1.22-1.48,1.8-2.27c0.2-0.29,0.44-0.55,0.64-0.84
						c0.73-1.08,1.43-2.21,2.04-3.37c0.15-0.26,0.26-0.55,0.41-0.81c0.47-0.93,0.87-1.83,1.28-2.79c0.17-0.44,0.32-0.87,0.47-1.31
						c0.29-0.84,0.58-1.69,0.81-2.56c0.15-0.49,0.26-0.96,0.38-1.43c0.2-0.93,0.38-1.86,0.52-2.79c0.06-0.44,0.15-0.84,0.17-1.28
						c0.17-1.4,0.26-2.79,0.26-4.19c0-14.78-8.78-27.43-21.38-33.13V35.7c0-2.39-0.41-4.65-1.16-6.69
						c-2.27-6.17-7.59-10.47-13.76-10.47V9.87c13,0,23.59,11.58,23.59,25.83v131.07C90.96,174.91,99.19,189.4,99.19,205.1z"/>
				</g>
			</g>
			<g>
				<g>
					<path class="st0" d="M20.22,218.51c3.4,9.42,10.56,16.78,19.92,20.3c1.45,0.55,2.91,0.99,4.36,1.37
						c0.41,0.12,0.81,0.2,1.25,0.29c1.08,0.23,2.18,0.44,3.26,0.58c0.38,0.06,0.76,0.12,1.13,0.17c1.37,0.15,2.71,0.23,4.04,0.23
						c0,0,0,0,0.03,0v8.67c-0.03,0-0.03,0-0.03,0c-5.73,0-11.49-1.08-17.1-3.2c-11.66-4.39-20.77-13.7-25.02-25.51
						c-7.53-21,0.38-43.51,18.47-54.66V35.7c0-14.25,10.62-25.83,23.65-25.83c0,0,0,0,0.03,0v8.67c-0.03,0-0.03,0-0.03,0
						c-6.22,0-11.52,4.31-13.82,10.47c-0.76,2.04-1.16,4.31-1.16,6.69v136.28C22.92,179.33,13,198.38,20.22,218.51z"/>
				</g>
			</g>
		</g>
	</g>
</g>
</svg>
